blackwide.ufo
<glyph name="quotesingle" format="1">
  <advance width="221"/>
  <unicode hex="0027"/>
  <outline>
    <contour>
      <point x="191" y="658"/>
      <point x="30" y="658"/>
      <point x="191" y="658" type="curve"/>
      <point x="191" y="721"/>
      <point x="191" y="783"/>
      <point x="191" y="846" type="curve"/>
      <point x="30" y="846"/>
      <point x="191" y="846"/>
      <point x="30" y="846" type="curve"/>
      <point x="30" y="783"/>
      <point x="30" y="721"/>
      <point x="30" y="658" type="curve"/>
    </contour>
  </outline>
</glyph>
<glyph name="B" format="1">
  <advance width="854"/>
  <unicode hex="0042"/>
  <outline>
    <contour>
      <point x="225" y="722"/>
      <point x="225" y="605"/>
      <point x="225" y="722" type="curve"/>
      <point x="161" y="722"/>
      <point x="96" y="722"/>
      <point x="31" y="722" type="curve"/>
      <point x="31" y="605"/>
      <point x="31" y="722"/>
      <point x="31" y="605" type="curve"/>
      <point x="225" y="605"/>
      <point x="31" y="605"/>
      <point x="225" y="605" type="curve"/>
    </contour>
    <contour>
      <point x="224" y="117"/>
      <point x="224" y="0"/>
      <point x="224" y="117" type="curve"/>
      <point x="30" y="117"/>
      <point x="224" y="117"/>
      <point x="30" y="117" type="curve"/>
      <point x="30" y="0"/>
      <point x="30" y="117"/>
      <point x="30" y="0" type="curve"/>
      <point x="95" y="0"/>
      <point x="159" y="0"/>
      <point x="224" y="0" type="curve"/>
    </contour>
    <contour>
      <point x="211" y="605"/>
      <point x="211" y="722"/>
      <point x="211" y="605" type="curve"/>
      <point x="304" y="605"/>
      <point x="398" y="605"/>
      <point x="492" y="605" type="curve"/>
      <point x="553" y="605"/>
      <point x="603" y="585"/>
      <point x="603" y="528" type="curve"/>
      <point x="603" y="471"/>
      <point x="535" y="462"/>
      <point x="470" y="462" type="curve"/>
      <point x="384" y="462"/>
      <point x="297" y="462"/>
      <point x="211" y="462" type="curve"/>
      <point x="211" y="345"/>
      <point x="211" y="462"/>
      <point x="211" y="345" type="curve"/>
      <point x="271" y="345"/>
      <point x="330" y="345"/>
      <point x="390" y="345" type="curve"/>
      <point x="574" y="345"/>
      <point x="763" y="367"/>
      <point x="763" y="528" type="curve"/>
      <point x="763" y="668"/>
      <point x="646" y="722"/>
      <point x="492" y="722" type="curve"/>
      <point x="398" y="722"/>
      <point x="304" y="722"/>
      <point x="211" y="722" type="curve"/>
    </contour>
    <contour>
      <point x="310" y="0"/>
      <point x="142" y="0"/>
      <point x="310" y="0" type="curve"/>
      <point x="310" y="241"/>
      <point x="310" y="481"/>
      <point x="310" y="722" type="curve"/>
      <point x="142" y="722"/>
      <point x="310" y="722"/>
      <point x="142" y="722" type="curve"/>
      <point x="142" y="481"/>
      <point x="142" y="241"/>
      <point x="142" y="0" type="curve"/>
    </contour>
    <contour>
      <point x="211" y="345"/>
      <point x="211" y="462"/>
      <point x="211" y="345" type="curve"/>
      <point x="297" y="345"/>
      <point x="384" y="345"/>
      <point x="470" y="345" type="curve"/>
      <point x="573" y="345"/>
      <point x="664" y="320"/>
      <point x="664" y="226" type="curve"/>
      <point x="664" y="140"/>
      <point x="587" y="117"/>
      <point x="489" y="117" type="curve"/>
      <point x="396" y="117"/>
      <point x="304" y="117"/>
      <point x="211" y="117" type="curve"/>
      <point x="211" y="0"/>
      <point x="211" y="117"/>
      <point x="211" y="0" type="curve"/>
      <point x="304" y="0"/>
      <point x="396" y="0"/>
      <point x="489" y="0" type="curve"/>
      <point x="681" y="0"/>
      <point x="824" y="57"/>
      <point x="824" y="226" type="curve"/>
      <point x="824" y="429"/>
      <point x="618" y="462"/>
      <point x="390" y="462" type="curve"/>
      <point x="330" y="462"/>
      <point x="271" y="462"/>
      <point x="211" y="462" type="curve"/>
    </contour>
  </outline>
</glyph>
<glyph name="E" format="1">
  <advance width="810"/>
  <unicode hex="0045"/>
  <outline>
    <contour>
      <point x="532" y="372"/>
      <point x="654" y="372"/>
      <point x="532" y="372" type="curve"/>
      <point x="532" y="252"/>
      <point x="532" y="372"/>
      <point x="532" y="252" type="curve"/>
      <point x="654" y="252"/>
      <point x="532" y="252"/>
      <point x="654" y="252" type="curve"/>
      <point x="654" y="372"/>
      <point x="654" y="252"/>
      <point x="654" y="372" type="curve"/>
    </contour>
    <contour>
      <point x="654" y="372"/>
      <point x="532" y="372"/>
      <point x="654" y="372" type="curve"/>
      <point x="654" y="492"/>
      <point x="654" y="372"/>
      <point x="654" y="492" type="curve"/>
      <point x="532" y="492"/>
      <point x="654" y="492"/>
      <point x="532" y="492" type="curve"/>
      <point x="532" y="372"/>
      <point x="532" y="492"/>
      <point x="532" y="372" type="curve"/>
    </contour>
    <contour>
      <point x="780" y="58"/>
      <point x="658" y="58"/>
      <point x="780" y="58" type="curve"/>
      <point x="780" y="178"/>
      <point x="780" y="58"/>
      <point x="780" y="178" type="curve"/>
      <point x="658" y="178"/>
      <point x="780" y="178"/>
      <point x="658" y="178" type="curve"/>
      <point x="658" y="58"/>
      <point x="658" y="178"/>
      <point x="658" y="58" type="curve"/>
    </contour>
    <contour>
      <point x="613" y="664"/>
      <point x="736" y="664"/>
      <point x="613" y="664" type="curve"/>
      <point x="613" y="544"/>
      <point x="613" y="664"/>
      <point x="613" y="544" type="curve"/>
      <point x="736" y="544"/>
      <point x="613" y="544"/>
      <point x="736" y="544" type="curve"/>
      <point x="736" y="664"/>
      <point x="736" y="544"/>
      <point x="736" y="664" type="curve"/>
    </contour>
    <contour>
      <point x="224" y="117"/>
      <point x="224" y="0"/>
      <point x="224" y="117" type="curve"/>
      <point x="30" y="117"/>
      <point x="224" y="117"/>
      <point x="30" y="117" type="curve"/>
      <point x="30" y="0"/>
      <point x="30" y="117"/>
      <point x="30" y="0" type="curve"/>
      <point x="95" y="0"/>
      <point x="159" y="0"/>
      <point x="224" y="0" type="curve"/>
    </contour>
    <contour>
      <point x="224" y="722"/>
      <point x="224" y="605"/>
      <point x="224" y="722" type="curve"/>
      <point x="159" y="722"/>
      <point x="95" y="722"/>
      <point x="30" y="722" type="curve"/>
      <point x="30" y="605"/>
      <point x="30" y="722"/>
      <point x="30" y="605" type="curve"/>
      <point x="224" y="605"/>
      <point x="30" y="605"/>
      <point x="224" y="605" type="curve"/>
    </contour>
    <contour>
      <point x="228" y="314"/>
      <point x="228" y="431"/>
      <point x="228" y="314" type="curve"/>
      <point x="370" y="314"/>
      <point x="512" y="314"/>
      <point x="654" y="314" type="curve"/>
      <point x="654" y="431"/>
      <point x="654" y="314"/>
      <point x="654" y="431" type="curve"/>
      <point x="512" y="431"/>
      <point x="370" y="431"/>
      <point x="228" y="431" type="curve"/>
    </contour>
    <contour>
      <point x="208" y="605"/>
      <point x="208" y="722"/>
      <point x="208" y="605" type="curve"/>
      <point x="384" y="605"/>
      <point x="560" y="605"/>
      <point x="736" y="605" type="curve"/>
      <point x="736" y="722"/>
      <point x="736" y="605"/>
      <point x="736" y="722" type="curve"/>
      <point x="560" y="722"/>
      <point x="384" y="722"/>
      <point x="208" y="722" type="curve"/>
    </contour>
    <contour>
      <point x="303" y="0"/>
      <point x="142" y="0"/>
      <point x="303" y="0" type="curve"/>
      <point x="303" y="0"/>
      <point x="303" y="722"/>
      <point x="303" y="722" type="curve"/>
      <point x="142" y="722"/>
      <point x="303" y="722"/>
      <point x="142" y="722" type="curve"/>
      <point x="142" y="481"/>
      <point x="142" y="241"/>
      <point x="142" y="0" type="curve"/>
    </contour>
    <contour>
      <point x="208" y="0"/>
      <point x="208" y="117"/>
      <point x="208" y="0" type="curve"/>
      <point x="399" y="0"/>
      <point x="590" y="0"/>
      <point x="780" y="0" type="curve"/>
      <point x="780" y="117"/>
      <point x="780" y="0"/>
      <point x="780" y="117" type="curve"/>
      <point x="590" y="117"/>
      <point x="399" y="117"/>
      <point x="208" y="117" type="curve"/>
    </contour>
  </outline>
</glyph>
<glyph name="K" format="1">
  <advance width="1010"/>
  <unicode hex="004B"/>
  <outline>
    <contour>
      <point x="789" y="117"/>
      <point x="781" y="0"/>
      <point x="789" y="117" type="curve"/>
      <point x="592" y="117"/>
      <point x="789" y="117"/>
      <point x="592" y="117" type="curve"/>
      <point x="592" y="0"/>
      <point x="592" y="117"/>
      <point x="592" y="0" type="curve"/>
      <point x="655" y="0"/>
      <point x="718" y="0"/>
      <point x="781" y="0" type="curve"/>
    </contour>
    <contour>
      <point x="756" y="722"/>
      <point x="756" y="605"/>
      <point x="756" y="722" type="curve"/>
      <point x="691" y="722"/>
      <point x="626" y="722"/>
      <point x="562" y="722" type="curve"/>
      <point x="562" y="605"/>
      <point x="562" y="722"/>
      <point x="562" y="605" type="curve"/>
      <point x="756" y="605"/>
      <point x="562" y="605"/>
      <point x="756" y="605" type="curve"/>
    </contour>
    <contour>
      <point x="786" y="0"/>
      <point x="786" y="117"/>
      <point x="786" y="0" type="curve"/>
      <point x="850" y="0"/>
      <point x="915" y="0"/>
      <point x="979" y="0" type="curve"/>
      <point x="979" y="117"/>
      <point x="979" y="0"/>
      <point x="979" y="117" type="curve"/>
      <point x="786" y="117"/>
      <point x="979" y="117"/>
      <point x="786" y="117" type="curve"/>
    </contour>
    <contour>
      <point x="756" y="605"/>
      <point x="756" y="722"/>
      <point x="756" y="605" type="curve"/>
      <point x="950" y="605"/>
      <point x="756" y="605"/>
      <point x="950" y="605" type="curve"/>
      <point x="950" y="722"/>
      <point x="950" y="605"/>
      <point x="950" y="722" type="curve"/>
      <point x="885" y="722"/>
      <point x="820" y="722"/>
      <point x="756" y="722" type="curve"/>
    </contour>
    <contour>
      <point x="224" y="722"/>
      <point x="224" y="605"/>
      <point x="224" y="722" type="curve"/>
      <point x="159" y="722"/>
      <point x="95" y="722"/>
      <point x="30" y="722" type="curve"/>
      <point x="30" y="605"/>
      <point x="30" y="722"/>
      <point x="30" y="605" type="curve"/>
      <point x="224" y="605"/>
      <point x="30" y="605"/>
      <point x="224" y="605" type="curve"/>
    </contour>
    <contour>
      <point x="224" y="605"/>
      <point x="224" y="722"/>
      <point x="224" y="605" type="curve"/>
      <point x="418" y="605"/>
      <point x="224" y="605"/>
      <point x="418" y="605" type="curve"/>
      <point x="418" y="722"/>
      <point x="418" y="605"/>
      <point x="418" y="722" type="curve"/>
      <point x="353" y="722"/>
      <point x="289" y="722"/>
      <point x="224" y="722" type="curve"/>
    </contour>
    <contour>
      <point x="224" y="0"/>
      <point x="224" y="117"/>
      <point x="224" y="0" type="curve"/>
      <point x="289" y="0"/>
      <point x="224" y="0"/>
      <point x="418" y="0" type="curve"/>
      <point x="418" y="117"/>
      <point x="418" y="0"/>
      <point x="418" y="117" type="curve"/>
      <point x="224" y="117"/>
      <point x="418" y="117"/>
      <point x="224" y="117" type="curve"/>
    </contour>
    <contour>
      <point x="224" y="117"/>
      <point x="224" y="0"/>
      <point x="224" y="117" type="curve"/>
      <point x="30" y="117"/>
      <point x="224" y="117"/>
      <point x="30" y="117" type="curve"/>
      <point x="30" y="0"/>
      <point x="30" y="117"/>
      <point x="30" y="0" type="curve"/>
      <point x="95" y="0"/>
      <point x="159" y="0"/>
      <point x="224" y="0" type="curve"/>
    </contour>
    <contour>
      <point x="648" y="722"/>
      <point x="910" y="722"/>
      <point x="648" y="722" type="curve"/>
      <point x="476" y="610"/>
      <point x="308" y="492"/>
      <point x="136" y="380" type="curve"/>
      <point x="362" y="380"/>
      <point x="136" y="380"/>
      <point x="362" y="380" type="curve"/>
      <point x="544" y="496"/>
      <point x="729" y="606"/>
      <point x="910" y="722" type="curve"/>
    </contour>
    <contour>
      <point x="304" y="0"/>
      <point x="144" y="0"/>
      <point x="304" y="0" type="curve"/>
      <point x="304" y="0"/>
      <point x="304" y="722"/>
      <point x="304" y="722" type="curve"/>
      <point x="144" y="722"/>
      <point x="304" y="722"/>
      <point x="144" y="722" type="curve"/>
      <point x="144" y="481"/>
      <point x="144" y="241"/>
      <point x="144" y="0" type="curve"/>
    </contour>
    <contour>
      <point x="945" y="0"/>
      <point x="675" y="0"/>
      <point x="945" y="0" type="curve"/>
      <point x="752" y="129"/>
      <point x="555" y="251"/>
      <point x="362" y="380" type="curve"/>
      <point x="136" y="380"/>
      <point x="362" y="380"/>
      <point x="136" y="380" type="curve"/>
      <point x="317" y="256"/>
      <point x="493" y="124"/>
      <point x="675" y="0" type="curve"/>
    </contour>
  </outline>
</glyph>
<glyph name="L" format="1">
  <advance width="802"/>
  <unicode hex="004C"/>
  <outline>
    <contour>
      <point x="773" y="58"/>
      <point x="650" y="58"/>
      <point x="773" y="58" type="curve"/>
      <point x="773" y="178"/>
      <point x="773" y="58"/>
      <point x="773" y="178" type="curve"/>
      <point x="650" y="178"/>
      <point x="773" y="178"/>
      <point x="650" y="178" type="curve"/>
      <point x="650" y="58"/>
      <point x="650" y="178"/>
      <point x="650" y="58" type="curve"/>
    </contour>
    <contour>
      <point x="224" y="117"/>
      <point x="224" y="0"/>
      <point x="224" y="117" type="curve"/>
      <point x="30" y="117"/>
      <point x="224" y="117"/>
      <point x="30" y="117" type="curve"/>
      <point x="30" y="0"/>
      <point x="30" y="117"/>
      <point x="30" y="0" type="curve"/>
      <point x="95" y="0"/>
      <point x="159" y="0"/>
      <point x="224" y="0" type="curve"/>
    </contour>
    <contour>
      <point x="224" y="722"/>
      <point x="224" y="605"/>
      <point x="224" y="722" type="curve"/>
      <point x="159" y="722"/>
      <point x="95" y="722"/>
      <point x="30" y="722" type="curve"/>
      <point x="30" y="605"/>
      <point x="30" y="722"/>
      <point x="30" y="605" type="curve"/>
      <point x="224" y="605"/>
      <point x="30" y="605"/>
      <point x="224" y="605" type="curve"/>
    </contour>
    <contour>
      <point x="224" y="605"/>
      <point x="224" y="722"/>
      <point x="224" y="605" type="curve"/>
      <point x="418" y="605"/>
      <point x="224" y="605"/>
      <point x="418" y="605" type="curve"/>
      <point x="418" y="722"/>
      <point x="418" y="605"/>
      <point x="418" y="722" type="curve"/>
      <point x="353" y="722"/>
      <point x="289" y="722"/>
      <point x="224" y="722" type="curve"/>
    </contour>
    <contour>
      <point x="306" y="0"/>
      <point x="145" y="0"/>
      <point x="306" y="0" type="curve"/>
      <point x="306" y="241"/>
      <point x="306" y="481"/>
      <point x="306" y="722" type="curve"/>
      <point x="145" y="722"/>
      <point x="306" y="722"/>
      <point x="145" y="722" type="curve"/>
      <point x="145" y="481"/>
      <point x="145" y="241"/>
      <point x="145" y="0" type="curve"/>
    </contour>
    <contour>
      <point x="224" y="0"/>
      <point x="224" y="117"/>
      <point x="224" y="0" type="curve"/>
      <point x="407" y="0"/>
      <point x="590" y="0"/>
      <point x="773" y="0" type="curve"/>
      <point x="773" y="117"/>
      <point x="773" y="0"/>
      <point x="773" y="117" type="curve"/>
      <point x="590" y="117"/>
      <point x="407" y="117"/>
      <point x="224" y="117" type="curve"/>
    </contour>
  </outline>
</glyph>
<glyph name="M" format="1">
  <advance width="1343"/>
  <unicode hex="004D"/>
  <outline>
    <contour>
      <point x="1120" y="0"/>
      <point x="1120" y="117"/>
      <point x="1120" y="0" type="curve"/>
      <point x="1184" y="0"/>
      <point x="1249" y="0"/>
      <point x="1314" y="0" type="curve"/>
      <point x="1314" y="117"/>
      <point x="1314" y="0"/>
      <point x="1314" y="117" type="curve"/>
      <point x="1120" y="117"/>
      <point x="1314" y="117"/>
      <point x="1120" y="117" type="curve"/>
    </contour>
    <contour>
      <point x="1120" y="117"/>
      <point x="1120" y="0"/>
      <point x="1120" y="117" type="curve"/>
      <point x="926" y="117"/>
      <point x="1120" y="117"/>
      <point x="926" y="117" type="curve"/>
      <point x="926" y="0"/>
      <point x="926" y="117"/>
      <point x="926" y="0" type="curve"/>
      <point x="990" y="0"/>
      <point x="1055" y="0"/>
      <point x="1120" y="0" type="curve"/>
    </contour>
    <contour>
      <point x="224" y="117"/>
      <point x="224" y="0"/>
      <point x="224" y="117" type="curve"/>
      <point x="30" y="117"/>
      <point x="224" y="117"/>
      <point x="30" y="117" type="curve"/>
      <point x="30" y="0"/>
      <point x="30" y="117"/>
      <point x="30" y="0" type="curve"/>
      <point x="95" y="0"/>
      <point x="159" y="0"/>
      <point x="224" y="0" type="curve"/>
    </contour>
    <contour>
      <point x="301" y="722"/>
      <point x="301" y="605"/>
      <point x="301" y="722" type="curve"/>
      <point x="236" y="722"/>
      <point x="171" y="722"/>
      <point x="107" y="722" type="curve"/>
      <point x="107" y="605"/>
      <point x="107" y="722"/>
      <point x="107" y="605" type="curve"/>
      <point x="301" y="605"/>
      <point x="107" y="605"/>
      <point x="301" y="605" type="curve"/>
    </contour>
    <contour>
      <point x="1040" y="605"/>
      <point x="1040" y="722"/>
      <point x="1040" y="605" type="curve"/>
      <point x="1234" y="605"/>
      <point x="1040" y="605"/>
      <point x="1234" y="605" type="curve"/>
      <point x="1234" y="722"/>
      <point x="1234" y="605"/>
      <point x="1234" y="722" type="curve"/>
      <point x="1170" y="722"/>
      <point x="1105" y="722"/>
      <point x="1040" y="722" type="curve"/>
    </contour>
    <contour>
      <point x="224" y="0"/>
      <point x="224" y="117"/>
      <point x="224" y="0" type="curve"/>
      <point x="289" y="0"/>
      <point x="224" y="0"/>
      <point x="418" y="0" type="curve"/>
      <point x="418" y="117"/>
      <point x="418" y="0"/>
      <point x="418" y="117" type="curve"/>
      <point x="224" y="117"/>
      <point x="418" y="117"/>
      <point x="224" y="117" type="curve"/>
    </contour>
    <contour>
      <point x="1199" y="0"/>
      <point x="1038" y="0"/>
      <point x="1199" y="0" type="curve"/>
      <point x="1172" y="241"/>
      <point x="1139" y="481"/>
      <point x="1112" y="722" type="curve"/>
      <point x="966" y="722"/>
      <point x="1112" y="722"/>
      <point x="966" y="722" type="curve"/>
      <point x="992" y="482"/>
      <point x="1012" y="240"/>
      <point x="1038" y="0" type="curve"/>
    </contour>
    <contour>
      <point x="303" y="0"/>
      <point x="142" y="0"/>
      <point x="303" y="0" type="curve"/>
      <point x="328" y="241"/>
      <point x="353" y="481"/>
      <point x="377" y="722" type="curve"/>
      <point x="219" y="722"/>
      <point x="377" y="722"/>
      <point x="219" y="722" type="curve"/>
      <point x="193" y="481"/>
      <point x="168" y="241"/>
      <point x="142" y="0" type="curve"/>
    </contour>
    <contour>
      <point x="746" y="0"/>
      <point x="586" y="0"/>
      <point x="746" y="0" type="curve"/>
      <point x="624" y="241"/>
      <point x="502" y="481"/>
      <point x="380" y="722" type="curve"/>
      <point x="221" y="722"/>
      <point x="380" y="722"/>
      <point x="221" y="722" type="curve"/>
      <point x="343" y="481"/>
      <point x="464" y="241"/>
      <point x="586" y="0" type="curve"/>
    </contour>
    <contour>
      <point x="758" y="0"/>
      <point x="596" y="0"/>
      <point x="758" y="0" type="curve"/>
      <point x="877" y="241"/>
      <point x="996" y="481"/>
      <point x="1116" y="722" type="curve"/>
      <point x="957" y="722"/>
      <point x="1116" y="722"/>
      <point x="957" y="722" type="curve"/>
      <point x="837" y="481"/>
      <point x="717" y="241"/>
      <point x="596" y="0" type="curve"/>
    </contour>
  </outline>
</glyph>
<glyph name="P" format="1">
  <advance width="805"/>
  <unicode hex="0050"/>
  <outline>
    <contour>
      <point x="224" y="722"/>
      <point x="224" y="605"/>
      <point x="224" y="722" type="curve"/>
      <point x="159" y="722"/>
      <point x="95" y="722"/>
      <point x="30" y="722" type="curve"/>
      <point x="30" y="605"/>
      <point x="30" y="722"/>
      <point x="30" y="605" type="curve"/>
      <point x="224" y="605"/>
      <point x="30" y="605"/>
      <point x="224" y="605" type="curve"/>
    </contour>
    <contour>
      <point x="224" y="117"/>
      <point x="224" y="0"/>
      <point x="224" y="117" type="curve"/>
      <point x="30" y="117"/>
      <point x="224" y="117"/>
      <point x="30" y="117" type="curve"/>
      <point x="30" y="0"/>
      <point x="30" y="117"/>
      <point x="30" y="0" type="curve"/>
      <point x="95" y="0"/>
      <point x="159" y="0"/>
      <point x="224" y="0" type="curve"/>
    </contour>
    <contour>
      <point x="224" y="0"/>
      <point x="224" y="117"/>
      <point x="224" y="0" type="curve"/>
      <point x="289" y="0"/>
      <point x="224" y="0"/>
      <point x="418" y="0" type="curve"/>
      <point x="418" y="117"/>
      <point x="418" y="0"/>
      <point x="418" y="117" type="curve"/>
      <point x="224" y="117"/>
      <point x="418" y="117"/>
      <point x="224" y="117" type="curve"/>
    </contour>
    <contour>
      <point x="200" y="287"/>
      <point x="251" y="392"/>
      <point x="200" y="287" type="curve"/>
      <point x="274" y="261"/>
      <point x="341" y="242"/>
      <point x="419" y="242" type="curve"/>
      <point x="614" y="245"/>
      <point x="775" y="306"/>
      <point x="775" y="478" type="curve"/>
      <point x="775" y="657"/>
      <point x="605" y="722"/>
      <point x="403" y="722" type="curve"/>
      <point x="345" y="722"/>
      <point x="286" y="722"/>
      <point x="228" y="722" type="curve"/>
      <point x="228" y="605"/>
      <point x="228" y="722"/>
      <point x="228" y="605" type="curve"/>
      <point x="279" y="605"/>
      <point x="330" y="605"/>
      <point x="381" y="605" type="curve"/>
      <point x="506" y="605"/>
      <point x="614" y="580"/>
      <point x="614" y="472" type="curve"/>
      <point x="614" y="387"/>
      <point x="531" y="359"/>
      <point x="434" y="359" type="curve"/>
      <point x="365" y="359"/>
      <point x="316" y="370"/>
      <point x="251" y="392" type="curve"/>
    </contour>
    <contour>
      <point x="303" y="0"/>
      <point x="142" y="0"/>
      <point x="303" y="0" type="curve"/>
      <point x="303" y="241"/>
      <point x="303" y="481"/>
      <point x="303" y="722" type="curve"/>
      <point x="142" y="722"/>
      <point x="303" y="722"/>
      <point x="142" y="722" type="curve"/>
      <point x="142" y="481"/>
      <point x="142" y="241"/>
      <point x="142" y="0" type="curve"/>
    </contour>
  </outline>
</glyph>
<glyph name="R" format="1">
  <advance width="1033"/>
  <unicode hex="0052"/>
  <outline>
    <contour>
      <point x="809" y="0"/>
      <point x="809" y="117"/>
      <point x="809" y="0" type="curve"/>
      <point x="874" y="0"/>
      <point x="938" y="0"/>
      <point x="1003" y="0" type="curve"/>
      <point x="1003" y="117"/>
      <point x="1003" y="0"/>
      <point x="1003" y="117" type="curve"/>
      <point x="809" y="117"/>
      <point x="1003" y="117"/>
      <point x="809" y="117" type="curve"/>
    </contour>
    <contour>
      <point x="224" y="722"/>
      <point x="224" y="605"/>
      <point x="224" y="722" type="curve"/>
      <point x="159" y="722"/>
      <point x="95" y="722"/>
      <point x="30" y="722" type="curve"/>
      <point x="30" y="605"/>
      <point x="30" y="722"/>
      <point x="30" y="605" type="curve"/>
      <point x="224" y="605"/>
      <point x="30" y="605"/>
      <point x="224" y="605" type="curve"/>
    </contour>
    <contour>
      <point x="224" y="117"/>
      <point x="224" y="0"/>
      <point x="224" y="117" type="curve"/>
      <point x="30" y="117"/>
      <point x="224" y="117"/>
      <point x="30" y="117" type="curve"/>
      <point x="30" y="0"/>
      <point x="30" y="117"/>
      <point x="30" y="0" type="curve"/>
      <point x="95" y="0"/>
      <point x="159" y="0"/>
      <point x="224" y="0" type="curve"/>
    </contour>
    <contour>
      <point x="224" y="0"/>
      <point x="224" y="117"/>
      <point x="224" y="0" type="curve"/>
      <point x="289" y="0"/>
      <point x="224" y="0"/>
      <point x="418" y="0" type="curve"/>
      <point x="418" y="117"/>
      <point x="418" y="0"/>
      <point x="418" y="117" type="curve"/>
      <point x="224" y="117"/>
      <point x="418" y="117"/>
      <point x="224" y="117" type="curve"/>
    </contour>
    <contour>
      <point x="395" y="354"/>
      <point x="592" y="354"/>
      <point x="395" y="354" type="curve"/>
      <point x="506" y="236"/>
      <point x="617" y="118"/>
      <point x="728" y="0" type="curve"/>
      <point x="925" y="0"/>
      <point x="728" y="0"/>
      <point x="925" y="0" type="curve"/>
      <point x="814" y="118"/>
      <point x="703" y="236"/>
      <point x="592" y="354" type="curve"/>
    </contour>
    <contour>
      <point x="306" y="0"/>
      <point x="145" y="0"/>
      <point x="306" y="0" type="curve"/>
      <point x="306" y="241"/>
      <point x="305" y="481"/>
      <point x="306" y="722" type="curve"/>
      <point x="145" y="722"/>
      <point x="306" y="722"/>
      <point x="145" y="722" type="curve"/>
      <point x="145" y="481"/>
      <point x="145" y="241"/>
      <point x="145" y="0" type="curve"/>
    </contour>
    <contour>
      <point x="228" y="294"/>
      <point x="228" y="411"/>
      <point x="228" y="294" type="curve"/>
      <point x="298" y="294"/>
      <point x="369" y="294"/>
      <point x="440" y="294" type="curve"/>
      <point x="642" y="294"/>
      <point x="798" y="341"/>
      <point x="798" y="518" type="curve"/>
      <point x="798" y="680"/>
      <point x="655" y="722"/>
      <point x="471" y="722" type="curve"/>
      <point x="390" y="722"/>
      <point x="309" y="722"/>
      <point x="228" y="722" type="curve"/>
      <point x="228" y="605"/>
      <point x="228" y="722"/>
      <point x="228" y="605" type="curve"/>
      <point x="299" y="605"/>
      <point x="371" y="605"/>
      <point x="442" y="605" type="curve"/>
      <point x="549" y="605"/>
      <point x="638" y="597"/>
      <point x="638" y="506" type="curve"/>
      <point x="638" y="423"/>
      <point x="558" y="411"/>
      <point x="462" y="411" type="curve"/>
      <point x="384" y="411"/>
      <point x="306" y="411"/>
      <point x="228" y="411" type="curve"/>
    </contour>
  </outline>
</glyph>
<glyph name="U" format="1">
  <advance width="1098"/>
  <unicode hex="0055"/>
  <outline>
    <contour>
      <point x="874" y="605"/>
      <point x="874" y="722"/>
      <point x="874" y="605" type="curve"/>
      <point x="1068" y="605"/>
      <point x="874" y="605"/>
      <point x="1068" y="605" type="curve"/>
      <point x="1068" y="722"/>
      <point x="1068" y="605"/>
      <point x="1068" y="722" type="curve"/>
      <point x="1003" y="722"/>
      <point x="939" y="722"/>
      <point x="874" y="722" type="curve"/>
    </contour>
    <contour>
      <point x="874" y="722"/>
      <point x="874" y="605"/>
      <point x="874" y="722" type="curve"/>
      <point x="809" y="722"/>
      <point x="745" y="722"/>
      <point x="680" y="722" type="curve"/>
      <point x="680" y="605"/>
      <point x="680" y="722"/>
      <point x="680" y="605" type="curve"/>
      <point x="874" y="605"/>
      <point x="680" y="605"/>
      <point x="874" y="605" type="curve"/>
    </contour>
    <contour>
      <point x="224" y="722"/>
      <point x="224" y="605"/>
      <point x="224" y="722" type="curve"/>
      <point x="159" y="722"/>
      <point x="95" y="722"/>
      <point x="30" y="722" type="curve"/>
      <point x="30" y="605"/>
      <point x="30" y="722"/>
      <point x="30" y="605" type="curve"/>
      <point x="224" y="605"/>
      <point x="30" y="605"/>
      <point x="224" y="605" type="curve"/>
    </contour>
    <contour>
      <point x="224" y="605"/>
      <point x="224" y="722"/>
      <point x="224" y="605" type="curve"/>
      <point x="418" y="605"/>
      <point x="224" y="605"/>
      <point x="418" y="605" type="curve"/>
      <point x="418" y="722"/>
      <point x="418" y="605"/>
      <point x="418" y="722" type="curve"/>
      <point x="353" y="722"/>
      <point x="289" y="722"/>
      <point x="224" y="722" type="curve"/>
    </contour>
    <contour>
      <point x="142" y="722"/>
      <point x="303" y="722"/>
      <point x="142" y="722" type="curve"/>
      <point x="142" y="568"/>
      <point x="142" y="415"/>
      <point x="142" y="261" type="curve"/>
      <point x="142" y="30"/>
      <point x="294" y="-53"/>
      <point x="544" y="-53" type="curve"/>
      <point x="799" y="-53"/>
      <point x="953" y="35"/>
      <point x="953" y="273" type="curve"/>
      <point x="953" y="422"/>
      <point x="953" y="572"/>
      <point x="953" y="722" type="curve"/>
      <point x="792" y="722"/>
      <point x="953" y="722"/>
      <point x="792" y="722" type="curve"/>
      <point x="792" y="564"/>
      <point x="792" y="407"/>
      <point x="792" y="249" type="curve"/>
      <point x="792" y="118"/>
      <point x="703" y="75"/>
      <point x="559" y="75" type="curve"/>
      <point x="398" y="75"/>
      <point x="303" y="134"/>
      <point x="303" y="285" type="curve"/>
      <point x="303" y="430"/>
      <point x="303" y="576"/>
      <point x="303" y="722" type="curve"/>
    </contour>
  </outline>
</glyph>
<glyph name="Y" format="1">
  <advance width="1045"/>
  <unicode hex="0059"/>
  <outline>
    <contour>
      <point x="514" y="117"/>
      <point x="514" y="0"/>
      <point x="514" y="117" type="curve"/>
      <point x="320" y="117"/>
      <point x="514" y="117"/>
      <point x="320" y="117" type="curve"/>
      <point x="320" y="0"/>
      <point x="320" y="117"/>
      <point x="320" y="0" type="curve"/>
      <point x="385" y="0"/>
      <point x="449" y="0"/>
      <point x="514" y="0" type="curve"/>
    </contour>
    <contour>
      <point x="514" y="0"/>
      <point x="514" y="117"/>
      <point x="514" y="0" type="curve"/>
      <point x="578" y="0"/>
      <point x="643" y="0"/>
      <point x="708" y="0" type="curve"/>
      <point x="708" y="117"/>
      <point x="708" y="0"/>
      <point x="708" y="117" type="curve"/>
      <point x="514" y="117"/>
      <point x="708" y="117"/>
      <point x="514" y="117" type="curve"/>
    </contour>
    <contour>
      <point x="821" y="722"/>
      <point x="821" y="605"/>
      <point x="821" y="722" type="curve"/>
      <point x="756" y="722"/>
      <point x="691" y="722"/>
      <point x="627" y="722" type="curve"/>
      <point x="627" y="605"/>
      <point x="627" y="722"/>
      <point x="627" y="605" type="curve"/>
      <point x="821" y="605"/>
      <point x="627" y="605"/>
      <point x="821" y="605" type="curve"/>
    </contour>
    <contour>
      <point x="224" y="722"/>
      <point x="224" y="605"/>
      <point x="224" y="722" type="curve"/>
      <point x="159" y="722"/>
      <point x="95" y="722"/>
      <point x="30" y="722" type="curve"/>
      <point x="30" y="605"/>
      <point x="30" y="722"/>
      <point x="30" y="605" type="curve"/>
      <point x="224" y="605"/>
      <point x="30" y="605"/>
      <point x="224" y="605" type="curve"/>
    </contour>
    <contour>
      <point x="224" y="605"/>
      <point x="224" y="722"/>
      <point x="224" y="605" type="curve"/>
      <point x="418" y="605"/>
      <point x="224" y="605"/>
      <point x="418" y="605" type="curve"/>
      <point x="418" y="722"/>
      <point x="418" y="605"/>
      <point x="418" y="722" type="curve"/>
      <point x="353" y="722"/>
      <point x="289" y="722"/>
      <point x="224" y="722" type="curve"/>
    </contour>
    <contour>
      <point x="821" y="605"/>
      <point x="821" y="722"/>
      <point x="821" y="605" type="curve"/>
      <point x="1015" y="605"/>
      <point x="821" y="605"/>
      <point x="1015" y="605" type="curve"/>
      <point x="1015" y="722"/>
      <point x="1015" y="605"/>
      <point x="1015" y="722" type="curve"/>
      <point x="950" y="722"/>
      <point x="885" y="722"/>
      <point x="821" y="722" type="curve"/>
    </contour>
    <contour>
      <point x="127" y="722"/>
      <point x="290" y="722"/>
      <point x="127" y="722" type="curve"/>
      <point x="229" y="594"/>
      <point x="331" y="465"/>
      <point x="433" y="337" type="curve"/>
      <point x="595" y="337"/>
      <point x="433" y="337"/>
      <point x="595" y="337" type="curve"/>
      <point x="493" y="465"/>
      <point x="391" y="594"/>
      <point x="290" y="722" type="curve"/>
    </contour>
    <contour>
      <point x="755" y="722"/>
      <point x="917" y="722"/>
      <point x="755" y="722" type="curve"/>
      <point x="647" y="594"/>
      <point x="540" y="465"/>
      <point x="433" y="337" type="curve"/>
      <point x="595" y="337"/>
      <point x="433" y="337"/>
      <point x="595" y="337" type="curve"/>
      <point x="703" y="465"/>
      <point x="810" y="594"/>
      <point x="917" y="722" type="curve"/>
    </contour>
    <contour>
      <point x="601" y="0"/>
      <point x="426" y="0"/>
      <point x="601" y="0" type="curve"/>
      <point x="601" y="115"/>
      <point x="601" y="231"/>
      <point x="601" y="346" type="curve"/>
      <point x="426" y="346"/>
      <point x="601" y="346"/>
      <point x="426" y="346" type="curve"/>
      <point x="426" y="231"/>
      <point x="426" y="115"/>
      <point x="426" y="0" type="curve"/>
    </contour>
  </outline>
</glyph>
<glyph name="bracketleft" format="1">
  <advance width="330"/>
  <unicode hex="005B"/>
  <outline>
    <contour>
      <point x="300" y="769"/>
      <point x="300" y="641"/>
      <point x="300" y="769" type="curve"/>
      <point x="234" y="769"/>
      <point x="167" y="769"/>
      <point x="101" y="769" type="curve"/>
      <point x="78" y="769"/>
      <point x="55" y="769"/>
      <point x="30" y="769" type="curve"/>
      <point x="30" y="750"/>
      <point x="30" y="733"/>
      <point x="30" y="710" type="curve"/>
      <point x="30" y="455"/>
      <point x="30" y="200"/>
      <point x="30" y="-55" type="curve"/>
      <point x="30" y="-76"/>
      <point x="30" y="-85"/>
      <point x="30" y="-112" type="curve"/>
      <point x="52" y="-112"/>
      <point x="77" y="-112"/>
      <point x="100" y="-112" type="curve"/>
      <point x="167" y="-112"/>
      <point x="233" y="-112"/>
      <point x="300" y="-112" type="curve"/>
      <point x="300" y="17"/>
      <point x="300" y="-112"/>
      <point x="300" y="17" type="curve"/>
      <point x="233" y="17"/>
      <point x="167" y="17"/>
      <point x="100" y="17" type="curve"/>
      <point x="191" y="17"/>
      <point x="100" y="17"/>
      <point x="191" y="17" type="curve"/>
      <point x="191" y="-55"/>
      <point x="191" y="17"/>
      <point x="191" y="-55" type="curve"/>
      <point x="191" y="200"/>
      <point x="191" y="455"/>
      <point x="191" y="710" type="curve"/>
      <point x="191" y="641"/>
      <point x="191" y="710"/>
      <point x="191" y="641" type="curve"/>
      <point x="101" y="641"/>
      <point x="191" y="641"/>
      <point x="101" y="641" type="curve"/>
      <point x="167" y="641"/>
      <point x="234" y="641"/>
      <point x="300" y="641" type="curve"/>
    </contour>
  </outline>
</glyph>
<glyph name="h" format="1">
  <advance width="930"/>
  <unicode hex="0068"/>
  <outline>
    <contour>
      <point x="706" y="-1"/>
      <point x="706" y="116"/>
      <point x="706" y="-1" type="curve"/>
      <point x="771" y="-1"/>
      <point x="835" y="0"/>
      <point x="900" y="0" type="curve"/>
      <point x="900" y="117"/>
      <point x="900" y="0"/>
      <point x="900" y="117" type="curve"/>
      <point x="706" y="116"/>
      <point x="900" y="117"/>
      <point x="706" y="116" type="curve"/>
    </contour>
    <contour>
      <point x="224" y="-1"/>
      <point x="224" y="116"/>
      <point x="224" y="-1" type="curve"/>
      <point x="284" y="-1"/>
      <point x="224" y="-1"/>
      <point x="405" y="0" type="curve"/>
      <point x="405" y="117"/>
      <point x="405" y="0"/>
      <point x="405" y="117" type="curve"/>
      <point x="224" y="116"/>
      <point x="405" y="117"/>
      <point x="224" y="116" type="curve"/>
    </contour>
    <contour>
      <point x="224" y="799"/>
      <point x="224" y="683"/>
      <point x="224" y="799" type="curve"/>
      <point x="159" y="799"/>
      <point x="95" y="800"/>
      <point x="30" y="800" type="curve"/>
      <point x="30" y="683"/>
      <point x="30" y="800"/>
      <point x="30" y="683" type="curve"/>
      <point x="224" y="683"/>
      <point x="30" y="683"/>
      <point x="224" y="683" type="curve"/>
    </contour>
    <contour>
      <point x="224" y="116"/>
      <point x="224" y="-1"/>
      <point x="224" y="116" type="curve"/>
      <point x="30" y="117"/>
      <point x="224" y="116"/>
      <point x="30" y="117" type="curve"/>
      <point x="30" y="0"/>
      <point x="30" y="117"/>
      <point x="30" y="0" type="curve"/>
      <point x="95" y="0"/>
      <point x="159" y="-1"/>
      <point x="224" y="-1" type="curve"/>
    </contour>
    <contour>
      <point x="706" y="116"/>
      <point x="706" y="-1"/>
      <point x="706" y="116" type="curve"/>
      <point x="525" y="117"/>
      <point x="706" y="116"/>
      <point x="525" y="117" type="curve"/>
      <point x="525" y="0"/>
      <point x="525" y="117"/>
      <point x="525" y="0" type="curve"/>
      <point x="586" y="0"/>
      <point x="646" y="-1"/>
      <point x="706" y="-1" type="curve"/>
    </contour>
    <contour>
      <point x="268" y="297"/>
      <point x="185" y="356"/>
      <point x="268" y="297" type="curve"/>
      <point x="309" y="377"/>
      <point x="400" y="416"/>
      <point x="491" y="416" type="curve"/>
      <point x="574" y="416"/>
      <point x="627" y="382"/>
      <point x="627" y="305" type="curve"/>
      <point x="627" y="204"/>
      <point x="627" y="102"/>
      <point x="627" y="0" type="curve"/>
      <point x="788" y="0"/>
      <point x="627" y="0"/>
      <point x="788" y="0" type="curve"/>
      <point x="788" y="106"/>
      <point x="788" y="211"/>
      <point x="788" y="317" type="curve"/>
      <point x="788" y="471"/>
      <point x="677" y="533"/>
      <point x="510" y="533" type="curve"/>
      <point x="373" y="533"/>
      <point x="236" y="478"/>
      <point x="185" y="356" type="curve"/>
    </contour>
    <contour>
      <point x="304" y="0"/>
      <point x="144" y="0"/>
      <point x="304" y="0" type="curve"/>
      <point x="304" y="267"/>
      <point x="304" y="533"/>
      <point x="304" y="800" type="curve"/>
      <point x="144" y="800"/>
      <point x="304" y="800"/>
      <point x="144" y="800" type="curve"/>
      <point x="144" y="533"/>
      <point x="144" y="267"/>
      <point x="144" y="0" type="curve"/>
    </contour>
  </outline>
</glyph>
<glyph name="l" format="1">
  <advance width="448"/>
  <unicode hex="006C"/>
  <outline>
    <contour>
      <point x="224" y="116"/>
      <point x="224" y="-1"/>
      <point x="224" y="116" type="curve"/>
      <point x="30" y="117"/>
      <point x="224" y="116"/>
      <point x="30" y="117" type="curve"/>
      <point x="30" y="0"/>
      <point x="30" y="117"/>
      <point x="30" y="0" type="curve"/>
      <point x="95" y="0"/>
      <point x="159" y="-1"/>
      <point x="224" y="-1" type="curve"/>
    </contour>
    <contour>
      <point x="227" y="799"/>
      <point x="227" y="683"/>
      <point x="227" y="799" type="curve"/>
      <point x="162" y="799"/>
      <point x="97" y="800"/>
      <point x="33" y="800" type="curve"/>
      <point x="33" y="683"/>
      <point x="33" y="800"/>
      <point x="33" y="683" type="curve"/>
      <point x="227" y="683"/>
      <point x="33" y="683"/>
      <point x="227" y="683" type="curve"/>
    </contour>
    <contour>
      <point x="224" y="-1"/>
      <point x="224" y="116"/>
      <point x="224" y="-1" type="curve"/>
      <point x="289" y="-1"/>
      <point x="353" y="0"/>
      <point x="418" y="0" type="curve"/>
      <point x="418" y="117"/>
      <point x="418" y="0"/>
      <point x="418" y="117" type="curve"/>
      <point x="224" y="116"/>
      <point x="418" y="117"/>
      <point x="224" y="116" type="curve"/>
    </contour>
    <contour>
      <point x="303" y="0"/>
      <point x="142" y="0"/>
      <point x="303" y="0" type="curve"/>
      <point x="303" y="267"/>
      <point x="303" y="533"/>
      <point x="303" y="800" type="curve"/>
      <point x="142" y="800"/>
      <point x="303" y="800"/>
      <point x="142" y="800" type="curve"/>
      <point x="142" y="533"/>
      <point x="142" y="267"/>
      <point x="142" y="0" type="curve"/>
    </contour>
  </outline>
</glyph>
<glyph name="m" format="1">
  <advance width="1312"/>
  <unicode hex="006D"/>
  <outline>
    <contour>
      <point x="656" y="0"/>
      <point x="656" y="117"/>
      <point x="656" y="0" type="curve"/>
      <point x="823" y="0"/>
      <point x="656" y="0"/>
      <point x="823" y="0" type="curve"/>
      <point x="823" y="117"/>
      <point x="823" y="0"/>
      <point x="823" y="117" type="curve"/>
      <point x="656" y="117"/>
      <point x="823" y="117"/>
      <point x="656" y="117" type="curve"/>
    </contour>
    <contour>
      <point x="656" y="117"/>
      <point x="656" y="0"/>
      <point x="656" y="117" type="curve"/>
      <point x="488" y="117"/>
      <point x="656" y="117"/>
      <point x="488" y="117" type="curve"/>
      <point x="488" y="0"/>
      <point x="488" y="117"/>
      <point x="488" y="0" type="curve"/>
      <point x="656" y="0"/>
      <point x="488" y="0"/>
      <point x="656" y="0" type="curve"/>
    </contour>
    <contour>
      <point x="1088" y="0"/>
      <point x="1088" y="117"/>
      <point x="1088" y="0" type="curve"/>
      <point x="1153" y="0"/>
      <point x="1218" y="0"/>
      <point x="1282" y="0" type="curve"/>
      <point x="1282" y="117"/>
      <point x="1282" y="0"/>
      <point x="1282" y="117" type="curve"/>
      <point x="1088" y="117"/>
      <point x="1282" y="117"/>
      <point x="1088" y="117" type="curve"/>
    </contour>
    <contour>
      <point x="224" y="117"/>
      <point x="224" y="0"/>
      <point x="224" y="117" type="curve"/>
      <point x="30" y="117"/>
      <point x="224" y="117"/>
      <point x="30" y="117" type="curve"/>
      <point x="30" y="0"/>
      <point x="30" y="117"/>
      <point x="30" y="0" type="curve"/>
      <point x="95" y="0"/>
      <point x="159" y="0"/>
      <point x="224" y="0" type="curve"/>
    </contour>
    <contour>
      <point x="224" y="0"/>
      <point x="224" y="117"/>
      <point x="224" y="0" type="curve"/>
      <point x="280" y="0"/>
      <point x="224" y="0"/>
      <point x="392" y="0" type="curve"/>
      <point x="392" y="117"/>
      <point x="392" y="0"/>
      <point x="392" y="117" type="curve"/>
      <point x="224" y="117"/>
      <point x="392" y="117"/>
      <point x="224" y="117" type="curve"/>
    </contour>
    <contour>
      <point x="224" y="533"/>
      <point x="224" y="416"/>
      <point x="224" y="533" type="curve"/>
      <point x="159" y="533"/>
      <point x="95" y="533"/>
      <point x="30" y="533" type="curve"/>
      <point x="30" y="416"/>
      <point x="30" y="533"/>
      <point x="30" y="416" type="curve"/>
      <point x="224" y="416"/>
      <point x="30" y="416"/>
      <point x="224" y="416" type="curve"/>
    </contour>
    <contour>
      <point x="1088" y="117"/>
      <point x="1088" y="0"/>
      <point x="1088" y="117" type="curve"/>
      <point x="921" y="117"/>
      <point x="1088" y="117"/>
      <point x="921" y="117" type="curve"/>
      <point x="921" y="0"/>
      <point x="921" y="117"/>
      <point x="921" y="0" type="curve"/>
      <point x="976" y="0"/>
      <point x="1032" y="0"/>
      <point x="1088" y="0" type="curve"/>
    </contour>
    <contour>
      <point x="699" y="297"/>
      <point x="616" y="356"/>
      <point x="699" y="297" type="curve"/>
      <point x="738" y="373"/>
      <point x="803" y="416"/>
      <point x="888" y="416" type="curve"/>
      <point x="968" y="416"/>
      <point x="1007" y="383"/>
      <point x="1007" y="305" type="curve"/>
      <point x="1007" y="204"/>
      <point x="1007" y="102"/>
      <point x="1007" y="0" type="curve"/>
      <point x="1167" y="0"/>
      <point x="1007" y="0"/>
      <point x="1167" y="0" type="curve"/>
      <point x="1167" y="106"/>
      <point x="1167" y="211"/>
      <point x="1167" y="317" type="curve"/>
      <point x="1167" y="471"/>
      <point x="1083" y="533"/>
      <point x="922" y="533" type="curve"/>
      <point x="784" y="533"/>
      <point x="668" y="480"/>
      <point x="616" y="356" type="curve"/>
    </contour>
    <contour>
      <point x="268" y="297"/>
      <point x="185" y="356"/>
      <point x="268" y="297" type="curve"/>
      <point x="308" y="374"/>
      <point x="371" y="416"/>
      <point x="456" y="416" type="curve"/>
      <point x="535" y="416"/>
      <point x="575" y="383"/>
      <point x="575" y="305" type="curve"/>
      <point x="575" y="204"/>
      <point x="575" y="102"/>
      <point x="575" y="0" type="curve"/>
      <point x="736" y="0"/>
      <point x="575" y="0"/>
      <point x="736" y="0" type="curve"/>
      <point x="736" y="106"/>
      <point x="736" y="211"/>
      <point x="736" y="317" type="curve"/>
      <point x="736" y="471"/>
      <point x="652" y="533"/>
      <point x="490" y="533" type="curve"/>
      <point x="351" y="533"/>
      <point x="238" y="481"/>
      <point x="185" y="356" type="curve"/>
    </contour>
    <contour>
      <point x="304" y="0"/>
      <point x="144" y="0"/>
      <point x="304" y="0" type="curve"/>
      <point x="304" y="178"/>
      <point x="304" y="355"/>
      <point x="304" y="533" type="curve"/>
      <point x="144" y="533"/>
      <point x="304" y="533"/>
      <point x="144" y="533" type="curve"/>
      <point x="144" y="355"/>
      <point x="144" y="178"/>
      <point x="144" y="0" type="curve"/>
    </contour>
  </outline>
</glyph>
<glyph name="q" format="1">
  <advance width="875"/>
  <unicode hex="0071"/>
  <outline>
    <contour>
      <point x="664" y="416"/>
      <point x="664" y="533"/>
      <point x="664" y="416" type="curve"/>
      <point x="845" y="416"/>
      <point x="664" y="416"/>
      <point x="845" y="416" type="curve"/>
      <point x="845" y="533"/>
      <point x="845" y="416"/>
      <point x="845" y="533" type="curve"/>
      <point x="785" y="533"/>
      <point x="724" y="533"/>
      <point x="664" y="533" type="curve"/>
    </contour>
    <contour>
      <point x="664" y="-183"/>
      <point x="664" y="-300"/>
      <point x="664" y="-183" type="curve"/>
      <point x="470" y="-183"/>
      <point x="664" y="-183"/>
      <point x="470" y="-183" type="curve"/>
      <point x="470" y="-300"/>
      <point x="470" y="-183"/>
      <point x="470" y="-300" type="curve"/>
      <point x="535" y="-300"/>
      <point x="599" y="-300"/>
      <point x="664" y="-300" type="curve"/>
    </contour>
    <contour>
      <point x="664" y="-300"/>
      <point x="664" y="-183"/>
      <point x="664" y="-300" type="curve"/>
      <point x="724" y="-300"/>
      <point x="785" y="-300"/>
      <point x="845" y="-300" type="curve"/>
      <point x="845" y="-183"/>
      <point x="845" y="-300"/>
      <point x="845" y="-183" type="curve"/>
      <point x="664" y="-183"/>
      <point x="845" y="-183"/>
      <point x="664" y="-183" type="curve"/>
    </contour>
    <contour>
      <point x="701" y="435"/>
      <point x="625" y="365"/>
      <point x="701" y="435" type="curve"/>
      <point x="601" y="492"/>
      <point x="495" y="533"/>
      <point x="382" y="533" type="curve"/>
      <point x="179" y="533"/>
      <point x="30" y="434"/>
      <point x="30" y="244" type="curve"/>
      <point x="30" y="57"/>
      <point x="186" y="-36"/>
      <point x="388" y="-36" type="curve"/>
      <point x="509" y="-36"/>
      <point x="624" y="12"/>
      <point x="705" y="94" type="curve"/>
      <point x="615" y="158"/>
      <point x="705" y="94"/>
      <point x="615" y="158" type="curve"/>
      <point x="555" y="100"/>
      <point x="470" y="81"/>
      <point x="386" y="81" type="curve"/>
      <point x="273" y="81"/>
      <point x="191" y="142"/>
      <point x="191" y="250" type="curve"/>
      <point x="191" y="357"/>
      <point x="272" y="416"/>
      <point x="386" y="416" type="curve"/>
      <point x="469" y="416"/>
      <point x="550" y="404"/>
      <point x="625" y="365" type="curve"/>
    </contour>
    <contour>
      <point x="746" y="-300"/>
      <point x="578" y="-300"/>
      <point x="746" y="-300" type="curve"/>
      <point x="746" y="-22"/>
      <point x="746" y="255"/>
      <point x="746" y="533" type="curve"/>
      <point x="578" y="533"/>
      <point x="746" y="533"/>
      <point x="578" y="533" type="curve"/>
      <point x="578" y="255"/>
      <point x="578" y="-22"/>
      <point x="578" y="-300" type="curve"/>
    </contour>
  </outline>
</glyph>
<glyph name="s" format="1">
  <advance width="625"/>
  <unicode hex="0073"/>
  <outline>
    <contour>
      <point x="33" y="46"/>
      <point x="113" y="152"/>
      <point x="33" y="46" type="curve"/>
      <point x="128" y="16"/>
      <point x="216" y="0"/>
      <point x="312" y="0" type="curve"/>
      <point x="470" y="0"/>
      <point x="594" y="27"/>
      <point x="594" y="164" type="curve"/>
      <point x="592" y="293"/>
      <point x="471" y="302"/>
      <point x="333" y="330" type="curve"/>
      <point x="269" y="343"/>
      <point x="201" y="349"/>
      <point x="201" y="386" type="curve"/>
      <point x="201" y="409"/>
      <point x="246" y="416"/>
      <point x="294" y="416" type="curve"/>
      <point x="350" y="416"/>
      <point x="420" y="404"/>
      <point x="460" y="388" type="curve"/>
      <point x="533" y="493"/>
      <point x="460" y="388"/>
      <point x="533" y="493" type="curve"/>
      <point x="477" y="516"/>
      <point x="380" y="533"/>
      <point x="302" y="533" type="curve"/>
      <point x="163" y="533"/>
      <point x="55" y="506"/>
      <point x="55" y="386" type="curve"/>
      <point x="55" y="269"/>
      <point x="156" y="244"/>
      <point x="282" y="219" type="curve"/>
      <point x="356" y="203"/>
      <point x="441" y="210"/>
      <point x="441" y="164" type="curve"/>
      <point x="441" y="138"/>
      <point x="391" y="117"/>
      <point x="334" y="117" type="curve"/>
      <point x="257" y="117"/>
      <point x="189" y="127"/>
      <point x="113" y="152" type="curve"/>
    </contour>
    <contour>
      <point x="410" y="493"/>
      <point x="533" y="493"/>
      <point x="410" y="493" type="curve"/>
      <point x="410" y="373"/>
      <point x="410" y="493"/>
      <point x="410" y="373" type="curve"/>
      <point x="533" y="373"/>
      <point x="410" y="373"/>
      <point x="533" y="373" type="curve"/>
      <point x="533" y="493"/>
      <point x="533" y="373"/>
      <point x="533" y="493" type="curve"/>
    </contour>
    <contour>
      <point x="153" y="46"/>
      <point x="30" y="46"/>
      <point x="153" y="46" type="curve"/>
      <point x="153" y="166"/>
      <point x="153" y="46"/>
      <point x="153" y="166" type="curve"/>
      <point x="30" y="166"/>
      <point x="153" y="166"/>
      <point x="30" y="166" type="curve"/>
      <point x="30" y="46"/>
      <point x="30" y="166"/>
      <point x="30" y="46" type="curve"/>
    </contour>
  </outline>
</glyph>
<glyph name="u" format="1">
  <advance width="909"/>
  <unicode hex="0075"/>
  <outline>
    <contour>
      <point x="698" y="533"/>
      <point x="698" y="416"/>
      <point x="698" y="533" type="curve"/>
      <point x="634" y="533"/>
      <point x="569" y="533"/>
      <point x="505" y="533" type="curve"/>
      <point x="505" y="416"/>
      <point x="505" y="533"/>
      <point x="505" y="416" type="curve"/>
      <point x="698" y="416"/>
      <point x="505" y="416"/>
      <point x="698" y="416" type="curve"/>
    </contour>
    <contour>
      <point x="224" y="533"/>
      <point x="224" y="416"/>
      <point x="224" y="533" type="curve"/>
      <point x="159" y="533"/>
      <point x="95" y="533"/>
      <point x="30" y="533" type="curve"/>
      <point x="30" y="416"/>
      <point x="30" y="533"/>
      <point x="30" y="416" type="curve"/>
      <point x="224" y="416"/>
      <point x="30" y="416"/>
      <point x="224" y="416" type="curve"/>
    </contour>
    <contour>
      <point x="698" y="0"/>
      <point x="698" y="117"/>
      <point x="698" y="0" type="curve"/>
      <point x="759" y="0"/>
      <point x="819" y="0"/>
      <point x="879" y="0" type="curve"/>
      <point x="879" y="117"/>
      <point x="879" y="0"/>
      <point x="879" y="117" type="curve"/>
      <point x="698" y="117"/>
      <point x="879" y="117"/>
      <point x="698" y="117" type="curve"/>
    </contour>
    <contour>
      <point x="779" y="0"/>
      <point x="618" y="0"/>
      <point x="779" y="0" type="curve"/>
      <point x="779" y="178"/>
      <point x="779" y="355"/>
      <point x="779" y="533" type="curve"/>
      <point x="618" y="533"/>
      <point x="779" y="533"/>
      <point x="618" y="533" type="curve"/>
      <point x="618" y="355"/>
      <point x="618" y="178"/>
      <point x="618" y="0" type="curve"/>
    </contour>
    <contour>
      <point x="644" y="218"/>
      <point x="749" y="165"/>
      <point x="644" y="218" type="curve"/>
      <point x="602" y="159"/>
      <point x="525" y="118"/>
      <point x="448" y="118" type="curve"/>
      <point x="363" y="118"/>
      <point x="304" y="145"/>
      <point x="304" y="222" type="curve"/>
      <point x="304" y="326"/>
      <point x="304" y="430"/>
      <point x="304" y="534" type="curve"/>
      <point x="144" y="534"/>
      <point x="304" y="534"/>
      <point x="144" y="534" type="curve"/>
      <point x="144" y="428"/>
      <point x="144" y="322"/>
      <point x="144" y="216" type="curve"/>
      <point x="144" y="57"/>
      <point x="262" y="1"/>
      <point x="436" y="1" type="curve"/>
      <point x="561" y="1"/>
      <point x="684" y="69"/>
      <point x="749" y="165" type="curve"/>
    </contour>
  </outline>
</glyph>
<glyph name="x" format="1">
  <advance width="983"/>
  <unicode hex="0078"/>
  <outline>
    <contour>
      <point x="224" y="117"/>
      <point x="224" y="0"/>
      <point x="224" y="117" type="curve"/>
      <point x="30" y="117"/>
      <point x="224" y="117"/>
      <point x="30" y="117" type="curve"/>
      <point x="30" y="0"/>
      <point x="30" y="117"/>
      <point x="30" y="0" type="curve"/>
      <point x="95" y="0"/>
      <point x="159" y="0"/>
      <point x="224" y="0" type="curve"/>
    </contour>
    <contour>
      <point x="760" y="117"/>
      <point x="760" y="0"/>
      <point x="760" y="117" type="curve"/>
      <point x="566" y="117"/>
      <point x="760" y="117"/>
      <point x="566" y="117" type="curve"/>
      <point x="566" y="0"/>
      <point x="566" y="117"/>
      <point x="566" y="0" type="curve"/>
      <point x="630" y="0"/>
      <point x="695" y="0"/>
      <point x="760" y="0" type="curve"/>
    </contour>
    <contour>
      <point x="760" y="0"/>
      <point x="760" y="117"/>
      <point x="760" y="0" type="curve"/>
      <point x="824" y="0"/>
      <point x="889" y="0"/>
      <point x="953" y="0" type="curve"/>
      <point x="953" y="117"/>
      <point x="953" y="0"/>
      <point x="953" y="117" type="curve"/>
      <point x="760" y="117"/>
      <point x="953" y="117"/>
      <point x="760" y="117" type="curve"/>
    </contour>
    <contour>
      <point x="224" y="0"/>
      <point x="224" y="117"/>
      <point x="224" y="0" type="curve"/>
      <point x="289" y="0"/>
      <point x="224" y="0"/>
      <point x="418" y="0" type="curve"/>
      <point x="418" y="117"/>
      <point x="418" y="0"/>
      <point x="418" y="117" type="curve"/>
      <point x="224" y="117"/>
      <point x="418" y="117"/>
      <point x="224" y="117" type="curve"/>
    </contour>
    <contour>
      <point x="739" y="416"/>
      <point x="739" y="533"/>
      <point x="739" y="416" type="curve"/>
      <point x="933" y="416"/>
      <point x="739" y="416"/>
      <point x="933" y="416" type="curve"/>
      <point x="933" y="533"/>
      <point x="933" y="416"/>
      <point x="933" y="533" type="curve"/>
      <point x="868" y="533"/>
      <point x="803" y="533"/>
      <point x="739" y="533" type="curve"/>
    </contour>
    <contour>
      <point x="250" y="533"/>
      <point x="250" y="416"/>
      <point x="250" y="533" type="curve"/>
      <point x="185" y="533"/>
      <point x="121" y="533"/>
      <point x="56" y="533" type="curve"/>
      <point x="56" y="416"/>
      <point x="56" y="533"/>
      <point x="56" y="416" type="curve"/>
      <point x="250" y="416"/>
      <point x="56" y="416"/>
      <point x="250" y="416" type="curve"/>
    </contour>
    <contour>
      <point x="250" y="416"/>
      <point x="250" y="533"/>
      <point x="250" y="416" type="curve"/>
      <point x="444" y="416"/>
      <point x="250" y="416"/>
      <point x="444" y="416" type="curve"/>
      <point x="444" y="533"/>
      <point x="444" y="416"/>
      <point x="444" y="533" type="curve"/>
      <point x="379" y="533"/>
      <point x="315" y="533"/>
      <point x="250" y="533" type="curve"/>
    </contour>
    <contour>
      <point x="739" y="533"/>
      <point x="739" y="416"/>
      <point x="739" y="533" type="curve"/>
      <point x="674" y="533"/>
      <point x="609" y="533"/>
      <point x="545" y="533" type="curve"/>
      <point x="545" y="416"/>
      <point x="545" y="533"/>
      <point x="545" y="416" type="curve"/>
      <point x="739" y="416"/>
      <point x="545" y="416"/>
      <point x="739" y="416" type="curve"/>
    </contour>
    <contour>
      <point x="876" y="0"/>
      <point x="679" y="0"/>
      <point x="876" y="0" type="curve"/>
      <point x="694" y="179"/>
      <point x="509" y="354"/>
      <point x="328" y="533" type="curve"/>
      <point x="145" y="533"/>
      <point x="328" y="533"/>
      <point x="145" y="533" type="curve"/>
      <point x="324" y="356"/>
      <point x="500" y="177"/>
      <point x="679" y="0" type="curve"/>
    </contour>
    <contour>
      <point x="664" y="533"/>
      <point x="846" y="533"/>
      <point x="664" y="533" type="curve"/>
      <point x="479" y="354"/>
      <point x="291" y="179"/>
      <point x="106" y="0" type="curve"/>
      <point x="311" y="0"/>
      <point x="106" y="0"/>
      <point x="311" y="0" type="curve"/>
      <point x="491" y="176"/>
      <point x="666" y="357"/>
      <point x="846" y="533" type="curve"/>
    </contour>
  </outline>
</glyph>
<glyph name="y" format="1">
  <advance width="975"/>
  <unicode hex="0079"/>
  <outline>
    <contour>
      <point x="254" y="-183"/>
      <point x="254" y="-300"/>
      <point x="254" y="-183" type="curve"/>
      <point x="60" y="-183"/>
      <point x="254" y="-183"/>
      <point x="60" y="-183" type="curve"/>
      <point x="60" y="-300"/>
      <point x="60" y="-183"/>
      <point x="60" y="-300" type="curve"/>
      <point x="125" y="-300"/>
      <point x="189" y="-300"/>
      <point x="254" y="-300" type="curve"/>
    </contour>
    <contour>
      <point x="224" y="533"/>
      <point x="224" y="416"/>
      <point x="224" y="533" type="curve"/>
      <point x="159" y="533"/>
      <point x="95" y="533"/>
      <point x="30" y="533" type="curve"/>
      <point x="30" y="416"/>
      <point x="30" y="533"/>
      <point x="30" y="416" type="curve"/>
      <point x="224" y="416"/>
      <point x="30" y="416"/>
      <point x="224" y="416" type="curve"/>
    </contour>
    <contour>
      <point x="224" y="416"/>
      <point x="224" y="533"/>
      <point x="224" y="416" type="curve"/>
      <point x="418" y="416"/>
      <point x="224" y="416"/>
      <point x="418" y="416" type="curve"/>
      <point x="418" y="533"/>
      <point x="418" y="416"/>
      <point x="418" y="533" type="curve"/>
      <point x="353" y="533"/>
      <point x="289" y="533"/>
      <point x="224" y="533" type="curve"/>
    </contour>
    <contour>
      <point x="750" y="533"/>
      <point x="750" y="416"/>
      <point x="750" y="533" type="curve"/>
      <point x="686" y="533"/>
      <point x="621" y="533"/>
      <point x="557" y="533" type="curve"/>
      <point x="557" y="416"/>
      <point x="557" y="533"/>
      <point x="557" y="416" type="curve"/>
      <point x="750" y="416"/>
      <point x="557" y="416"/>
      <point x="750" y="416" type="curve"/>
    </contour>
    <contour>
      <point x="750" y="416"/>
      <point x="750" y="533"/>
      <point x="750" y="416" type="curve"/>
      <point x="944" y="416"/>
      <point x="750" y="416"/>
      <point x="944" y="416" type="curve"/>
      <point x="944" y="533"/>
      <point x="944" y="416"/>
      <point x="944" y="533" type="curve"/>
      <point x="880" y="533"/>
      <point x="815" y="533"/>
      <point x="750" y="533" type="curve"/>
    </contour>
    <contour>
      <point x="557" y="77"/>
      <point x="397" y="77"/>
      <point x="557" y="77" type="curve"/>
      <point x="468" y="229"/>
      <point x="378" y="381"/>
      <point x="289" y="533" type="curve"/>
      <point x="126" y="533"/>
      <point x="289" y="533"/>
      <point x="126" y="533" type="curve"/>
      <point x="216" y="381"/>
      <point x="307" y="229"/>
      <point x="397" y="77" type="curve"/>
    </contour>
    <contour>
      <point x="319" y="-300"/>
      <point x="156" y="-300"/>
      <point x="319" y="-300" type="curve"/>
      <point x="495" y="-22"/>
      <point x="671" y="255"/>
      <point x="847" y="533" type="curve"/>
      <point x="685" y="533"/>
      <point x="847" y="533"/>
      <point x="685" y="533" type="curve"/>
      <point x="508" y="255"/>
      <point x="332" y="-22"/>
      <point x="156" y="-300" type="curve"/>
    </contour>
  </outline>
</glyph>
<glyph name="braceleft" format="1">
  <advance width="360"/>
  <unicode hex="007B"/>
  <outline>
    <contour>
      <point x="330" y="-56"/>
      <point x="330" y="-172"/>
      <point x="330" y="-56" type="curve"/>
      <point x="282" y="-56"/>
      <point x="253" y="-25"/>
      <point x="253" y="23" type="curve"/>
      <point x="253" y="81"/>
      <point x="253" y="140"/>
      <point x="253" y="198" type="curve"/>
      <point x="253" y="325"/>
      <point x="162" y="400"/>
      <point x="30" y="400" type="curve"/>
      <point x="30" y="277"/>
      <point x="30" y="400"/>
      <point x="30" y="277" type="curve"/>
      <point x="75" y="277"/>
      <point x="107" y="253"/>
      <point x="107" y="210" type="curve"/>
      <point x="107" y="149"/>
      <point x="107" y="89"/>
      <point x="107" y="28" type="curve"/>
      <point x="107" y="-100"/>
      <point x="197" y="-172"/>
      <point x="330" y="-172" type="curve"/>
    </contour>
    <contour>
      <point x="330" y="848"/>
      <point x="330" y="732"/>
      <point x="330" y="848" type="curve"/>
      <point x="197" y="848"/>
      <point x="107" y="779"/>
      <point x="107" y="651" type="curve"/>
      <point x="107" y="588"/>
      <point x="107" y="525"/>
      <point x="107" y="463" type="curve"/>
      <point x="107" y="421"/>
      <point x="74" y="400"/>
      <point x="30" y="400" type="curve"/>
      <point x="30" y="277"/>
      <point x="30" y="400"/>
      <point x="30" y="277" type="curve"/>
      <point x="163" y="277"/>
      <point x="253" y="350"/>
      <point x="253" y="480" type="curve"/>
      <point x="253" y="537"/>
      <point x="253" y="594"/>
      <point x="253" y="651" type="curve"/>
      <point x="253" y="700"/>
      <point x="281" y="732"/>
      <point x="330" y="732" type="curve"/>
    </contour>
  </outline>
</glyph>
<glyph name="uni0904" format="1">
  <advance width="1103"/>
  <unicode hex="0904"/>
  <outline>
    <contour>
      <point x="879" y="0"/>
      <point x="879" y="117"/>
      <point x="879" y="0" type="curve"/>
      <point x="939" y="0"/>
      <point x="999" y="0"/>
      <point x="1060" y="0" type="curve"/>
      <point x="1060" y="117"/>
      <point x="1060" y="0"/>
      <point x="1060" y="117" type="curve"/>
      <point x="879" y="117"/>
      <point x="1060" y="117"/>
      <point x="879" y="117" type="curve"/>
    </contour>
    <contour>
      <point x="879" y="117"/>
      <point x="879" y="0"/>
      <point x="879" y="117" type="curve"/>
      <point x="711" y="117"/>
      <point x="879" y="117"/>
      <point x="711" y="117" type="curve"/>
      <point x="711" y="0"/>
      <point x="711" y="117"/>
      <point x="711" y="0" type="curve"/>
      <point x="767" y="0"/>
      <point x="823" y="0"/>
      <point x="879" y="0" type="curve"/>
    </contour>
    <contour>
      <point x="153" y="123"/>
      <point x="30" y="123"/>
      <point x="153" y="123" type="curve"/>
      <point x="153" y="243"/>
      <point x="153" y="123"/>
      <point x="153" y="243" type="curve"/>
      <point x="30" y="243"/>
      <point x="153" y="243"/>
      <point x="30" y="243" type="curve"/>
      <point x="30" y="123"/>
      <point x="30" y="243"/>
      <point x="30" y="123" type="curve"/>
    </contour>
    <contour>
      <point x="958" y="657"/>
      <point x="797" y="657"/>
      <point x="958" y="657" type="curve"/>
      <point x="958" y="831"/>
      <point x="800" y="851"/>
      <point x="603" y="866" type="curve"/>
      <point x="486" y="876"/>
      <point x="374" y="875"/>
      <point x="374" y="947" type="curve"/>
      <point x="220" y="947"/>
      <point x="374" y="947"/>
      <point x="220" y="947" type="curve"/>
      <point x="220" y="774"/>
      <point x="377" y="770"/>
      <point x="574" y="755" type="curve"/>
      <point x="689" y="746"/>
      <point x="797" y="761"/>
      <point x="797" y="657" type="curve"/>
    </contour>
    <contour>
      <point x="33" y="123"/>
      <point x="142" y="199"/>
      <point x="33" y="123" type="curve"/>
      <point x="114" y="58"/>
      <point x="215" y="28"/>
      <point x="319" y="28" type="curve"/>
      <point x="517" y="22"/>
      <point x="679" y="73"/>
      <point x="675" y="244" type="curve"/>
      <point x="671" y="433"/>
      <point x="472" y="432"/>
      <point x="253" y="432" type="curve"/>
      <point x="253" y="332"/>
      <point x="253" y="432"/>
      <point x="253" y="332" type="curve"/>
      <point x="391" y="332"/>
      <point x="519" y="346"/>
      <point x="522" y="227" type="curve"/>
      <point x="524" y="143"/>
      <point x="434" y="142"/>
      <point x="334" y="144" type="curve"/>
      <point x="264" y="144"/>
      <point x="198" y="157"/>
      <point x="142" y="199" type="curve"/>
    </contour>
    <contour>
      <point x="958" y="0"/>
      <point x="797" y="0"/>
      <point x="958" y="0" type="curve"/>
      <point x="958" y="237"/>
      <point x="958" y="473"/>
      <point x="958" y="710" type="curve"/>
      <point x="797" y="710"/>
      <point x="958" y="710"/>
      <point x="797" y="710" type="curve"/>
      <point x="797" y="473"/>
      <point x="797" y="237"/>
      <point x="797" y="0" type="curve"/>
    </contour>
    <contour>
      <point x="170" y="561"/>
      <point x="75" y="660"/>
      <point x="170" y="561" type="curve"/>
      <point x="226" y="588"/>
      <point x="269" y="605"/>
      <point x="330" y="605" type="curve"/>
      <point x="410" y="605"/>
      <point x="480" y="589"/>
      <point x="479" y="520" type="curve"/>
      <point x="477" y="420"/>
      <point x="367" y="438"/>
      <point x="253" y="438" type="curve"/>
      <point x="253" y="333"/>
      <point x="253" y="438"/>
      <point x="253" y="333" type="curve"/>
      <point x="459" y="333"/>
      <point x="639" y="355"/>
      <point x="639" y="532" type="curve"/>
      <point x="640" y="673"/>
      <point x="510" y="722"/>
      <point x="352" y="722" type="curve"/>
      <point x="246" y="722"/>
      <point x="171" y="707"/>
      <point x="75" y="660" type="curve"/>
    </contour>
    <contour>
      <point x="680" y="605"/>
      <point x="680" y="722"/>
      <point x="680" y="605" type="curve"/>
      <point x="811" y="605"/>
      <point x="1022" y="605"/>
      <point x="1154" y="605" type="curve"/>
      <point x="1154" y="722"/>
      <point x="1154" y="605"/>
      <point x="1154" y="722" type="curve"/>
      <point x="1022" y="722"/>
      <point x="811" y="722"/>
      <point x="680" y="722" type="curve"/>
    </contour>
    <contour>
      <point x="855" y="452"/>
      <point x="891" y="358"/>
      <point x="855" y="452" type="curve"/>
      <point x="677" y="397"/>
      <point x="539" y="397"/>
      <point x="354" y="417" type="curve"/>
      <point x="318" y="347"/>
      <point x="354" y="417"/>
      <point x="318" y="347" type="curve"/>
      <point x="533" y="320"/>
      <point x="689" y="286"/>
      <point x="891" y="358" type="curve"/>
    </contour>
  </outline>
</glyph>
<glyph name="ideva" format="1">
  <advance width="820"/>
  <unicode hex="0907"/>
  <outline>
    <contour>
      <point x="-26" y="605"/>
      <point x="-26" y="722"/>
      <point x="-26" y="605" type="curve"/>
      <point x="227" y="605"/>
      <point x="568" y="605"/>
      <point x="821" y="605" type="curve"/>
      <point x="821" y="722"/>
      <point x="821" y="605"/>
      <point x="821" y="722" type="curve"/>
      <point x="568" y="722"/>
      <point x="227" y="722"/>
      <point x="-26" y="722" type="curve"/>
    </contour>
    <contour>
      <point x="497" y="663"/>
      <point x="658" y="663"/>
      <point x="497" y="663" type="curve"/>
      <point x="497" y="609"/>
      <point x="497" y="556"/>
      <point x="497" y="502" type="curve"/>
      <point x="513" y="512"/>
      <point x="524" y="528"/>
      <point x="540" y="538" type="curve"/>
      <point x="557" y="547"/>
      <point x="572" y="558"/>
      <point x="589" y="568" type="curve"/>
      <point x="499" y="568"/>
      <point x="410" y="568"/>
      <point x="320" y="568" type="curve"/>
      <point x="164" y="568"/>
      <point x="40" y="545"/>
      <point x="40" y="409" type="curve"/>
      <point x="40" y="305"/>
      <point x="120" y="267"/>
      <point x="220" y="225" type="curve"/>
      <point x="264" y="354"/>
      <point x="220" y="225"/>
      <point x="264" y="354" type="curve"/>
      <point x="231" y="371"/>
      <point x="193" y="372"/>
      <point x="193" y="409" type="curve"/>
      <point x="193" y="455"/>
      <point x="255" y="451"/>
      <point x="320" y="451" type="curve"/>
      <point x="410" y="451"/>
      <point x="499" y="451"/>
      <point x="589" y="451" type="curve"/>
      <point x="658" y="451"/>
      <point x="589" y="451"/>
      <point x="658" y="451" type="curve"/>
      <point x="658" y="502"/>
      <point x="658" y="451"/>
      <point x="658" y="502" type="curve"/>
      <point x="658" y="556"/>
      <point x="658" y="609"/>
      <point x="658" y="663" type="curve"/>
    </contour>
    <contour>
      <point x="220" y="225"/>
      <point x="264" y="354"/>
      <point x="220" y="225" type="curve"/>
      <point x="313" y="254"/>
      <point x="372" y="267"/>
      <point x="470" y="267" type="curve"/>
      <point x="530" y="267"/>
      <point x="583" y="270"/>
      <point x="584" y="217" type="curve"/>
      <point x="584" y="124"/>
      <point x="488" y="145"/>
      <point x="382" y="145" type="curve"/>
      <point x="311" y="145"/>
      <point x="257" y="150"/>
      <point x="232" y="213" type="curve"/>
      <point x="101" y="131"/>
      <point x="232" y="213"/>
      <point x="101" y="131" type="curve"/>
      <point x="142" y="13"/>
      <point x="249" y="23"/>
      <point x="382" y="23" type="curve"/>
      <point x="576" y="23"/>
      <point x="730" y="52"/>
      <point x="730" y="220" type="curve"/>
      <point x="728" y="344"/>
      <point x="625" y="384"/>
      <point x="485" y="384" type="curve"/>
      <point x="399" y="385"/>
      <point x="345" y="379"/>
      <point x="264" y="354" type="curve"/>
    </contour>
    <contour>
      <point x="101" y="131"/>
      <point x="232" y="213"/>
      <point x="101" y="131" type="curve"/>
      <point x="200" y="53"/>
      <point x="296" y="-30"/>
      <point x="395" y="-109" type="curve"/>
      <point x="541" y="-22"/>
      <point x="395" y="-109"/>
      <point x="541" y="-22" type="curve"/>
      <point x="439" y="58"/>
      <point x="334" y="133"/>
      <point x="232" y="213" type="curve"/>
    </contour>
  </outline>
</glyph>
<glyph name="tadeva" format="1">
  <advance width="919"/>
  <unicode hex="0924"/>
  <outline>
    <contour>
      <point x="454" y="104"/>
      <point x="352" y="11"/>
      <point x="454" y="104" type="curve"/>
      <point x="348" y="163"/>
      <point x="241" y="195"/>
      <point x="241" y="314" type="curve"/>
      <point x="241" y="388"/>
      <point x="320" y="386"/>
      <point x="405" y="386" type="curve"/>
      <point x="505" y="386"/>
      <point x="606" y="386"/>
      <point x="706" y="386" type="curve"/>
      <point x="706" y="503"/>
      <point x="706" y="386"/>
      <point x="706" y="503" type="curve"/>
      <point x="603" y="503"/>
      <point x="500" y="503"/>
      <point x="398" y="503" type="curve"/>
      <point x="223" y="503"/>
      <point x="73" y="467"/>
      <point x="73" y="314" type="curve"/>
      <point x="73" y="152"/>
      <point x="203" y="86"/>
      <point x="352" y="11" type="curve"/>
    </contour>
    <contour>
      <point x="707" y="0"/>
      <point x="707" y="117"/>
      <point x="707" y="0" type="curve"/>
      <point x="768" y="0"/>
      <point x="828" y="0"/>
      <point x="888" y="0" type="curve"/>
      <point x="888" y="117"/>
      <point x="888" y="0"/>
      <point x="888" y="117" type="curve"/>
      <point x="707" y="117"/>
      <point x="888" y="117"/>
      <point x="707" y="117" type="curve"/>
    </contour>
    <contour>
      <point x="785" y="0"/>
      <point x="624" y="0"/>
      <point x="785" y="0" type="curve"/>
      <point x="785" y="237"/>
      <point x="785" y="473"/>
      <point x="785" y="710" type="curve"/>
      <point x="624" y="710"/>
      <point x="785" y="710"/>
      <point x="624" y="710" type="curve"/>
      <point x="624" y="473"/>
      <point x="624" y="237"/>
      <point x="624" y="0" type="curve"/>
    </contour>
    <contour>
      <point x="6" y="605"/>
      <point x="6" y="722"/>
      <point x="6" y="605" type="curve"/>
      <point x="291" y="605"/>
      <point x="676" y="605"/>
      <point x="961" y="605" type="curve"/>
      <point x="961" y="722"/>
      <point x="961" y="605"/>
      <point x="961" y="722" type="curve"/>
      <point x="676" y="722"/>
      <point x="291" y="722"/>
      <point x="6" y="722" type="curve"/>
    </contour>
  </outline>
</glyph>
<glyph name="bhadeva" format="1">
  <advance width="1059"/>
  <unicode hex="092D"/>
  <outline>
    <contour>
      <point x="835" y="117"/>
      <point x="835" y="0"/>
      <point x="835" y="117" type="curve"/>
      <point x="641" y="117"/>
      <point x="835" y="117"/>
      <point x="641" y="117" type="curve"/>
      <point x="641" y="0"/>
      <point x="641" y="117"/>
      <point x="641" y="0" type="curve"/>
      <point x="706" y="0"/>
      <point x="770" y="0"/>
      <point x="835" y="0" type="curve"/>
    </contour>
    <contour>
      <point x="835" y="0"/>
      <point x="835" y="117"/>
      <point x="835" y="0" type="curve"/>
      <point x="895" y="0"/>
      <point x="956" y="0"/>
      <point x="1016" y="0" type="curve"/>
      <point x="1016" y="117"/>
      <point x="1016" y="0"/>
      <point x="1016" y="117" type="curve"/>
      <point x="835" y="117"/>
      <point x="1016" y="117"/>
      <point x="835" y="117" type="curve"/>
    </contour>
    <contour>
      <point x="913" y="0"/>
      <point x="752" y="0"/>
      <point x="913" y="0" type="curve"/>
      <point x="913" y="237"/>
      <point x="913" y="473"/>
      <point x="913" y="710" type="curve"/>
      <point x="752" y="710"/>
      <point x="913" y="710"/>
      <point x="752" y="710" type="curve"/>
      <point x="752" y="473"/>
      <point x="752" y="237"/>
      <point x="752" y="0" type="curve"/>
    </contour>
    <contour>
      <point x="622" y="605"/>
      <point x="622" y="722"/>
      <point x="622" y="605" type="curve"/>
      <point x="757" y="605"/>
      <point x="965" y="605"/>
      <point x="1101" y="605" type="curve"/>
      <point x="1101" y="722"/>
      <point x="1101" y="605"/>
      <point x="1101" y="722" type="curve"/>
      <point x="965" y="722"/>
      <point x="757" y="722"/>
      <point x="622" y="722" type="curve"/>
    </contour>
    <contour>
      <point x="192" y="537"/>
      <point x="105" y="461"/>
      <point x="192" y="537" type="curve"/>
      <point x="181" y="545"/>
      <point x="176" y="559"/>
      <point x="176" y="576" type="curve"/>
      <point x="176" y="603"/>
      <point x="214" y="605"/>
      <point x="253" y="605" type="curve"/>
      <point x="303" y="605"/>
      <point x="339" y="602"/>
      <point x="339" y="560" type="curve"/>
      <point x="339" y="478"/>
      <point x="339" y="396"/>
      <point x="339" y="314" type="curve"/>
      <point x="339" y="314"/>
      <point x="404" y="356"/>
      <point x="404" y="356" type="curve"/>
      <point x="404" y="356"/>
      <point x="453" y="315"/>
      <point x="453" y="315" type="curve"/>
      <point x="453" y="315"/>
      <point x="405" y="260"/>
      <point x="405" y="260" type="curve"/>
      <point x="549" y="260"/>
      <point x="693" y="260"/>
      <point x="838" y="260" type="curve"/>
      <point x="838" y="377"/>
      <point x="838" y="260"/>
      <point x="838" y="377" type="curve"/>
      <point x="691" y="377"/>
      <point x="544" y="377"/>
      <point x="398" y="377" type="curve"/>
      <point x="314" y="377"/>
      <point x="277" y="339"/>
      <point x="277" y="302" type="curve"/>
      <point x="277" y="254"/>
      <point x="312" y="225"/>
      <point x="396" y="225" type="curve"/>
      <point x="460" y="225"/>
      <point x="485" y="255"/>
      <point x="485" y="314" type="curve"/>
      <point x="485" y="396"/>
      <point x="485" y="478"/>
      <point x="485" y="560" type="curve"/>
      <point x="485" y="683"/>
      <point x="397" y="722"/>
      <point x="261" y="722" type="curve"/>
      <point x="134" y="722"/>
      <point x="32" y="683"/>
      <point x="30" y="570" type="curve"/>
      <point x="30" y="516"/>
      <point x="65" y="486"/>
      <point x="105" y="461" type="curve"/>
    </contour>
  </outline>
</glyph>
<glyph name="ssadeva" format="1">
  <advance width="835"/>
  <unicode hex="0937"/>
  <outline>
    <contour>
      <point x="-7" y="605"/>
      <point x="-7" y="722"/>
      <point x="-7" y="605" type="curve"/>
      <point x="251" y="605"/>
      <point x="610" y="605"/>
      <point x="868" y="605" type="curve"/>
      <point x="868" y="722"/>
      <point x="868" y="605"/>
      <point x="868" y="722" type="curve"/>
      <point x="610" y="722"/>
      <point x="251" y="722"/>
      <point x="-7" y="722" type="curve"/>
    </contour>
    <contour>
      <point x="611" y="117"/>
      <point x="611" y="0"/>
      <point x="611" y="117" type="curve"/>
      <point x="417" y="117"/>
      <point x="611" y="117"/>
      <point x="417" y="117" type="curve"/>
      <point x="417" y="0"/>
      <point x="417" y="117"/>
      <point x="417" y="0" type="curve"/>
      <point x="482" y="0"/>
      <point x="546" y="0"/>
      <point x="611" y="0" type="curve"/>
    </contour>
    <contour>
      <point x="611" y="0"/>
      <point x="611" y="117"/>
      <point x="611" y="0" type="curve"/>
      <point x="671" y="0"/>
      <point x="732" y="0"/>
      <point x="792" y="0" type="curve"/>
      <point x="792" y="117"/>
      <point x="792" y="0"/>
      <point x="792" y="117" type="curve"/>
      <point x="611" y="117"/>
      <point x="792" y="117"/>
      <point x="611" y="117" type="curve"/>
    </contour>
    <contour>
      <point x="107" y="622"/>
      <point x="217" y="698"/>
      <point x="107" y="622" type="curve"/>
      <point x="259" y="516"/>
      <point x="407" y="407"/>
      <point x="559" y="301" type="curve"/>
      <point x="661" y="395"/>
      <point x="559" y="301"/>
      <point x="661" y="395" type="curve"/>
      <point x="514" y="497"/>
      <point x="364" y="596"/>
      <point x="217" y="698" type="curve"/>
    </contour>
    <contour>
      <point x="558" y="388"/>
      <point x="668" y="341"/>
      <point x="558" y="388" type="curve"/>
      <point x="516" y="324"/>
      <point x="453" y="325"/>
      <point x="376" y="325" type="curve"/>
      <point x="301" y="325"/>
      <point x="240" y="343"/>
      <point x="240" y="408" type="curve"/>
      <point x="240" y="493"/>
      <point x="240" y="577"/>
      <point x="240" y="662" type="curve"/>
      <point x="80" y="662"/>
      <point x="240" y="662"/>
      <point x="80" y="662" type="curve"/>
      <point x="80" y="583"/>
      <point x="80" y="504"/>
      <point x="80" y="425" type="curve"/>
      <point x="80" y="275"/>
      <point x="205" y="203"/>
      <point x="369" y="203" type="curve"/>
      <point x="499" y="203"/>
      <point x="599" y="232"/>
      <point x="668" y="341" type="curve"/>
    </contour>
    <contour>
      <point x="689" y="0"/>
      <point x="528" y="0"/>
      <point x="689" y="0" type="curve"/>
      <point x="689" y="237"/>
      <point x="689" y="473"/>
      <point x="689" y="710" type="curve"/>
      <point x="528" y="710"/>
      <point x="689" y="710"/>
      <point x="528" y="710" type="curve"/>
      <point x="528" y="473"/>
      <point x="528" y="237"/>
      <point x="528" y="0" type="curve"/>
    </contour>
  </outline>
</glyph>
<glyph name="uni0921094D092F" format="1">
  <advance width="1597"/>
  <unicode hex="E002"/>
  <outline>
    <contour>
      <point x="1386" y="0"/>
      <point x="1386" y="117"/>
      <point x="1386" y="0" type="curve"/>
      <point x="1446" y="0"/>
      <point x="1507" y="0"/>
      <point x="1567" y="0" type="curve"/>
      <point x="1567" y="117"/>
      <point x="1567" y="0"/>
      <point x="1567" y="117" type="curve"/>
      <point x="1386" y="117"/>
      <point x="1567" y="117"/>
      <point x="1386" y="117" type="curve"/>
    </contour>
    <contour>
      <point x="1465" y="0"/>
      <point x="1304" y="0"/>
      <point x="1465" y="0" type="curve"/>
      <point x="1465" y="237"/>
      <point x="1465" y="473"/>
      <point x="1465" y="710" type="curve"/>
      <point x="1304" y="710"/>
      <point x="1465" y="710"/>
      <point x="1304" y="710" type="curve"/>
      <point x="1304" y="473"/>
      <point x="1304" y="237"/>
      <point x="1304" y="0" type="curve"/>
    </contour>
    <contour>
      <point x="676" y="492"/>
      <point x="515" y="492"/>
      <point x="676" y="492" type="curve"/>
      <point x="676" y="549"/>
      <point x="676" y="606"/>
      <point x="676" y="663" type="curve"/>
      <point x="515" y="663"/>
      <point x="676" y="663"/>
      <point x="515" y="663" type="curve"/>
      <point x="515" y="606"/>
      <point x="515" y="549"/>
      <point x="515" y="492" type="curve"/>
    </contour>
    <contour>
      <point x="597" y="559"/>
      <point x="597" y="442"/>
      <point x="597" y="559" type="curve"/>
      <point x="512" y="559"/>
      <point x="427" y="559"/>
      <point x="342" y="559" type="curve"/>
      <point x="180" y="559"/>
      <point x="63" y="542"/>
      <point x="63" y="402" type="curve"/>
      <point x="63" y="298"/>
      <point x="144" y="254"/>
      <point x="238" y="225" type="curve"/>
      <point x="282" y="354"/>
      <point x="238" y="225"/>
      <point x="282" y="354" type="curve"/>
      <point x="255" y="364"/>
      <point x="223" y="370"/>
      <point x="223" y="402" type="curve"/>
      <point x="223" y="442"/>
      <point x="282" y="442"/>
      <point x="349" y="442" type="curve"/>
      <point x="432" y="442"/>
      <point x="514" y="442"/>
      <point x="597" y="442" type="curve"/>
    </contour>
    <contour>
      <point x="67" y="103"/>
      <point x="170" y="191"/>
      <point x="67" y="103" type="curve"/>
      <point x="183" y="30"/>
      <point x="285" y="0"/>
      <point x="426" y="0" type="curve"/>
      <point x="593" y="0"/>
      <point x="730" y="49"/>
      <point x="730" y="197" type="curve"/>
      <point x="728" y="327"/>
      <point x="611" y="373"/>
      <point x="467" y="373" type="curve"/>
      <point x="398" y="373"/>
      <point x="350" y="368"/>
      <point x="282" y="354" type="curve"/>
      <point x="238" y="225"/>
      <point x="282" y="354"/>
      <point x="238" y="225" type="curve"/>
      <point x="314" y="242"/>
      <point x="368" y="256"/>
      <point x="445" y="256" type="curve"/>
      <point x="515" y="256"/>
      <point x="577" y="246"/>
      <point x="577" y="185" type="curve"/>
      <point x="577" y="124"/>
      <point x="513" y="117"/>
      <point x="440" y="117" type="curve"/>
      <point x="336" y="117"/>
      <point x="255" y="136"/>
      <point x="170" y="191" type="curve"/>
    </contour>
    <contour>
      <point x="573" y="442"/>
      <point x="573" y="559"/>
      <point x="573" y="442" type="curve"/>
      <point x="696" y="442"/>
      <point x="771" y="442"/>
      <point x="893" y="442" type="curve"/>
      <point x="970" y="442"/>
      <point x="1046" y="450"/>
      <point x="1046" y="408" type="curve"/>
      <point x="1046" y="363"/>
      <point x="958" y="372"/>
      <point x="871" y="372" type="curve"/>
      <point x="801" y="372"/>
      <point x="871" y="372"/>
      <point x="801" y="372" type="curve"/>
      <point x="801" y="319"/>
      <point x="801" y="372"/>
      <point x="801" y="319" type="curve"/>
      <point x="804" y="139"/>
      <point x="941" y="67"/>
      <point x="1136" y="67" type="curve"/>
      <point x="1275" y="67"/>
      <point x="1362" y="108"/>
      <point x="1441" y="221" type="curve"/>
      <point x="1332" y="274"/>
      <point x="1441" y="221"/>
      <point x="1332" y="274" type="curve"/>
      <point x="1283" y="205"/>
      <point x="1222" y="195"/>
      <point x="1136" y="195" type="curve"/>
      <point x="1035" y="195"/>
      <point x="962" y="227"/>
      <point x="962" y="319" type="curve"/>
      <point x="948" y="309"/>
      <point x="941" y="292"/>
      <point x="927" y="282" type="curve"/>
      <point x="912" y="271"/>
      <point x="893" y="266"/>
      <point x="878" y="255" type="curve"/>
      <point x="1053" y="255"/>
      <point x="1199" y="258"/>
      <point x="1199" y="408" type="curve"/>
      <point x="1199" y="551"/>
      <point x="1060" y="559"/>
      <point x="893" y="559" type="curve"/>
      <point x="771" y="559"/>
      <point x="696" y="559"/>
      <point x="573" y="559" type="curve"/>
    </contour>
    <contour>
      <point x="3" y="605"/>
      <point x="3" y="722"/>
      <point x="3" y="605" type="curve"/>
      <point x="507" y="605"/>
      <point x="1111" y="605"/>
      <point x="1615" y="605" type="curve"/>
      <point x="1615" y="722"/>
      <point x="1615" y="605"/>
      <point x="1615" y="722" type="curve"/>
      <point x="1111" y="722"/>
      <point x="507" y="722"/>
      <point x="3" y="722" type="curve"/>
    </contour>
  </outline>
</glyph>
